<svg width="174" height="86" viewBox="0 0 174 86" fill="none" xmlns="http://www.w3.org/2000/svg">
<path d="M96.3672 36.08L94.2392 67.16C94.2019 67.72 93.9965 68 93.6232 68H90.5432C88.4525 68 86.9592 67.5893 86.0632 66.768C85.1672 65.9467 84.7192 64.7707 84.7192 63.24C84.7192 62.68 84.7379 61.84 84.7752 60.72C84.8499 59.6 84.9432 58.2933 85.0552 56.8C85.1672 55.2693 85.2792 53.6267 85.3912 51.872C85.5405 50.08 85.6899 48.288 85.8392 46.496C85.9885 44.6667 86.1192 42.856 86.2312 41.064C86.3805 39.272 86.5112 37.6107 86.6232 36.08H77.6632C77.2525 36.08 77.0472 35.8187 77.0472 35.296L77.2152 32.16C77.2525 31.6747 77.3272 31.208 77.4392 30.76C77.5885 30.2747 77.8125 29.8453 78.1112 29.472C78.4099 29.0987 78.7832 28.8 79.2312 28.576C79.7165 28.352 80.2952 28.24 80.9672 28.24H105.999C106.223 28.24 106.429 28.296 106.615 28.408C106.802 28.52 106.895 28.7253 106.895 29.024L106.671 32.328C106.597 33.448 106.279 34.3627 105.719 35.072C105.197 35.744 104.095 36.08 102.415 36.08H96.3672ZM116.048 68.2734C112.584 68.2734 109.907 67.4303 108.016 65.7441C105.896 63.8757 104.837 61.0387 104.837 57.2334C104.837 55.7979 104.985 54.2142 105.281 52.4824C105.577 50.7279 106.033 48.9619 106.648 47.1846C108.061 42.9463 110.078 39.5625 112.698 37.0332C115.866 33.9342 119.637 32.3848 124.012 32.3848C130.005 32.3848 133.001 36.1104 133.001 43.5615V43.6299C133.138 43.6755 133.252 43.6982 133.343 43.6982H133.753C135.302 43.6982 137.137 43.2653 139.256 42.3994C141.124 41.6247 142.89 40.6562 144.554 39.4941L145.169 41.4082C143.802 42.8438 142.036 44.0628 139.871 45.0654C137.729 46.068 135.359 46.7858 132.762 47.2188C132.488 50.3861 131.873 53.2799 130.916 55.9004C129.959 58.498 128.729 60.7311 127.225 62.5996C125.743 64.4225 124.046 65.8239 122.132 66.8037C120.218 67.7835 118.19 68.2734 116.048 68.2734ZM118.851 61.9844C119.671 61.9844 120.503 61.6198 121.346 60.8906C122.212 60.1387 123.021 59.1019 123.772 57.7803C124.524 56.4587 125.174 54.9092 125.721 53.1318C126.268 51.3545 126.678 49.4518 126.951 47.4238C126.268 47.2415 125.778 46.8997 125.481 46.3984C125.208 45.8971 125.071 45.2591 125.071 44.4844C125.071 43.5273 125.265 42.7298 125.652 42.0918C126.04 41.4538 126.575 40.9867 127.259 40.6904C127.168 39.2093 126.928 38.1497 126.541 37.5117C126.336 37.1927 126.074 36.9648 125.755 36.8281C125.459 36.6914 125.071 36.623 124.593 36.623C123.021 36.623 121.482 37.8079 119.979 40.1777C118.589 42.3197 117.449 44.9629 116.561 48.1074C115.695 51.1836 115.262 53.918 115.262 56.3105C115.262 57.4727 115.319 58.4183 115.433 59.1475C115.569 59.8766 115.786 60.4463 116.082 60.8564C116.355 61.2666 116.709 61.5628 117.142 61.7451C117.575 61.9046 118.144 61.9844 118.851 61.9844ZM147.493 85.5C146.399 85.5 145.374 85.3519 144.417 85.0557C143.483 84.7822 142.674 84.3607 141.99 83.791C141.261 83.2214 140.691 82.5036 140.281 81.6377C139.871 80.7946 139.666 79.8148 139.666 78.6982C139.666 76.055 140.908 73.7878 143.392 71.8965C145.26 70.5065 147.824 69.2988 151.082 68.2734L151.937 64.5137C150.569 66.0176 149.088 67.0771 147.493 67.6924C146.263 68.1709 144.941 68.4102 143.528 68.4102C141.295 68.4102 139.529 67.7493 138.23 66.4277C136.772 64.9694 136.043 62.8389 136.043 60.0361C136.043 58.7145 136.225 57.1878 136.59 55.4561L141.341 33H151.424L146.399 56.7891C146.263 57.3587 146.194 57.9512 146.194 58.5664C146.194 59.4551 146.342 60.1615 146.639 60.6855C146.98 61.3236 147.527 61.6426 148.279 61.6426C149.51 61.6426 150.615 61.0957 151.595 60.002C152.438 59.0677 153.156 57.7005 153.748 55.9004L158.636 33H168.719L161.78 65.4707C163.991 64.7415 165.757 63.6478 167.078 62.1895C168.514 60.6172 169.687 58.3727 170.599 55.4561H173.538C172.285 59.6032 170.416 62.8047 167.933 65.0605C166.11 66.7012 163.854 67.8633 161.165 68.5469L160.105 73.6055C159.217 78.0716 157.439 81.3073 154.773 83.3125C152.837 84.7708 150.41 85.5 147.493 85.5ZM145.887 80.0312C146.593 80.0312 147.345 79.5186 148.143 78.4932C148.917 77.4906 149.521 75.9297 149.954 73.8105L150.364 71.7939C148.245 72.5915 146.661 73.4004 145.613 74.2207C144.223 75.2689 143.528 76.4424 143.528 77.7412C143.528 78.3564 143.722 78.8691 144.109 79.2793C144.542 79.7806 145.135 80.0312 145.887 80.0312Z" fill="#333333"/>
<path d="M28.1235 55.434L18.1805 42.685V68H10.3115V26.52H15.3135L29.3435 45.674L42.0925 26.52H46.9115V68H38.9205V44.088L31.1735 55.007L28.1235 55.434ZM71.9582 38.415L73.5442 44.759C72.2022 44.759 70.6365 45.1453 68.8472 45.918C67.0985 46.6907 65.3702 47.8293 63.6622 49.334V68H55.7322V38.415H59.8802L62.5032 42.746C63.7232 41.6887 65.2075 40.7127 66.9562 39.818C68.7049 38.8827 70.3722 38.415 71.9582 38.415Z" fill="#00D9C5"/>
<path d="M28.1235 55.434L26.9407 56.3565L27.4735 57.0396L28.3315 56.9195L28.1235 55.434ZM18.1805 42.685L19.3633 41.7625L16.6805 38.3226V42.685H18.1805ZM18.1805 68V69.5H19.6805V68H18.1805ZM10.3115 68H8.8115V69.5H10.3115V68ZM10.3115 26.52V25.02H8.8115V26.52H10.3115ZM15.3135 26.52L16.5236 25.6336L16.0741 25.02H15.3135V26.52ZM29.3435 45.674L28.1334 46.5604L29.4023 48.2927L30.5922 46.5051L29.3435 45.674ZM42.0925 26.52V25.02H41.289L40.8438 25.6889L42.0925 26.52ZM46.9115 26.52H48.4115V25.02H46.9115V26.52ZM46.9115 68V69.5H48.4115V68H46.9115ZM38.9205 68H37.4205V69.5H38.9205V68ZM38.9205 44.088H40.4205V39.3816L37.6971 43.22L38.9205 44.088ZM31.1735 55.007L31.3815 56.4925L32.0224 56.4028L32.3969 55.875L31.1735 55.007ZM29.3063 54.5115L19.3633 41.7625L16.9977 43.6075L26.9407 56.3565L29.3063 54.5115ZM16.6805 42.685V68H19.6805V42.685H16.6805ZM18.1805 66.5H10.3115V69.5H18.1805V66.5ZM11.8115 68V26.52H8.8115V68H11.8115ZM10.3115 28.02H15.3135V25.02H10.3115V28.02ZM14.1034 27.4064L28.1334 46.5604L30.5536 44.7876L16.5236 25.6336L14.1034 27.4064ZM30.5922 46.5051L43.3412 27.3511L40.8438 25.6889L28.0948 44.8429L30.5922 46.5051ZM42.0925 28.02H46.9115V25.02H42.0925V28.02ZM45.4115 26.52V68H48.4115V26.52H45.4115ZM46.9115 66.5H38.9205V69.5H46.9115V66.5ZM40.4205 68V44.088H37.4205V68H40.4205ZM37.6971 43.22L29.9501 54.139L32.3969 55.875L40.1439 44.956L37.6971 43.22ZM30.9655 53.5215L27.9155 53.9485L28.3315 56.9195L31.3815 56.4925L30.9655 53.5215ZM71.9582 38.415L73.4134 38.0512L73.1294 36.915H71.9582V38.415ZM73.5442 44.759V46.259H75.4654L74.9994 44.3952L73.5442 44.759ZM68.8472 45.918L68.2525 44.5409L68.241 44.546L68.8472 45.918ZM63.6622 49.334L62.6706 48.2085L62.1622 48.6564V49.334H63.6622ZM63.6622 68V69.5H65.1622V68H63.6622ZM55.7322 68H54.2322V69.5H55.7322V68ZM55.7322 38.415V36.915H54.2322V38.415H55.7322ZM59.8802 38.415L61.1632 37.6379L60.7254 36.915H59.8802V38.415ZM62.5032 42.746L61.2202 43.5231L62.1415 45.0444L63.4856 43.8795L62.5032 42.746ZM66.9562 39.818L67.6394 41.1534L67.6516 41.1471L67.6637 41.1407L66.9562 39.818ZM70.503 38.7788L72.089 45.1228L74.9994 44.3952L73.4134 38.0512L70.503 38.7788ZM73.5442 43.259C71.927 43.259 70.1516 43.7208 68.2525 44.5409L69.4418 47.2951C71.1214 46.5698 72.4773 46.259 73.5442 46.259V43.259ZM68.241 44.546C66.3282 45.3911 64.4725 46.6212 62.6706 48.2085L64.6537 50.4595C66.2679 49.0375 67.8688 47.9902 69.4534 47.29L68.241 44.546ZM62.1622 49.334V68H65.1622V49.334H62.1622ZM63.6622 66.5H55.7322V69.5H63.6622V66.5ZM57.2322 68V38.415H54.2322V68H57.2322ZM55.7322 39.915H59.8802V36.915H55.7322V39.915ZM58.5972 39.1921L61.2202 43.5231L63.7862 41.9689L61.1632 37.6379L58.5972 39.1921ZM63.4856 43.8795C64.5972 42.9161 65.9759 42.0044 67.6394 41.1534L66.273 38.4826C64.4391 39.4209 62.8492 40.4612 61.5208 41.6125L63.4856 43.8795ZM67.6637 41.1407C69.2482 40.2931 70.6733 39.915 71.9582 39.915V36.915C70.0711 36.915 68.1615 37.4722 66.2487 38.4953L67.6637 41.1407Z" fill="#333333"/>
<path d="M111.522 20.4482C111.524 20.5846 111.526 17.7209 111.526 17.8577V23.4192C111.526 24.6619 110.811 25.7701 109.74 26.1861C106.28 27.5303 100.307 28.1333 91.4998 28.1333C82.692 28.1333 76.7194 27.5303 73.2601 26.1861C72.1892 25.77 71.4737 24.6619 71.4737 23.4192V17.8577C71.4737 17.7209 71.476 20.5846 71.4782 20.4482C67.4427 22.5354 65 22.2601 65 25.2402C65 31.8101 72.7672 37.4997 91.5 37.1365C112.974 37.1365 118 31.8101 118 25.2402C118 22.2601 115.557 22.5354 111.522 20.4482Z" fill="#333333"/>
<path d="M74 20.6177V24.2076C78.0349 25.2103 83.9173 26 91.5 26C99.0825 26 104.965 25.2103 109 24.2076V20.6177C109 13.8587 103.091 7.93942 91.5 13.2254C79.9086 7.49892 74 13.8589 74 20.6177Z" fill="#333333"/>
</svg>
